<svg width="130" height="120" viewBox="0 0 130 120" fill="none" xmlns="http://www.w3.org/2000/svg">
<path d="M47.2286 0.251253C33.4537 1.97998 22.9441 13.2853 22.9441 26.4291V29.2555L17.8128 29.3652C12.901 29.4476 12.5717 29.475 11.09 30.1884C7.9069 31.6702 5.68424 34.524 5.108 37.8168C4.64152 40.6157 -0.160504 109.408 0.00413665 111.055C0.333418 114.402 3.13231 118.052 6.42513 119.369L7.98922 120H50.6586H93.328L94.8921 119.369C98.1849 118.052 100.984 114.402 101.313 111.055C101.478 109.408 96.6757 40.6431 96.2092 37.8442C96.0446 36.8838 95.6604 35.5941 95.3312 34.9905C94.4256 33.152 92.2579 31.1214 90.3645 30.2433C88.7181 29.475 88.4986 29.4476 83.5319 29.3652L78.3732 29.2555V27.0328C78.3457 20.3923 75.3547 13.3951 70.4155 8.42841C65.6958 3.68127 60.3176 1.04702 53.677 0.223813C51.0428 -0.0780283 49.9726 -0.0780283 47.2286 0.251253ZM55.4606 9.4437C63.4457 11.4743 69.5923 19.2398 69.5923 27.3072V29.3104H50.6586H31.7249V27.3072C31.7249 26.1822 31.9719 24.3437 32.2463 23.2186C34.8805 12.956 45.198 6.83689 55.4606 9.4437ZM23.0813 49.6709L22.8892 61.2781L23.5203 62.2111C24.4533 63.5556 25.4411 64.1868 26.8406 64.3514C28.4321 64.5435 30.0785 63.7203 30.9292 62.3208L31.5877 61.2781L31.6701 49.6709L31.7524 38.0912H50.6586H69.5649L69.6472 49.6709L69.7295 61.2781L70.3881 62.3208C71.2387 63.7203 72.8851 64.5435 74.4767 64.3514C75.8487 64.2142 76.8639 63.5556 77.7695 62.2385C78.3732 61.333 78.3732 61.3056 78.3732 49.7258V38.0912H82.6264C86.715 38.0912 86.8796 38.1186 87.2638 38.6949C87.5656 39.1614 88.279 48.0245 90.1724 74.8335L92.6969 110.369L92.0932 110.862C91.517 111.329 89.6236 111.356 50.6586 111.356C11.6936 111.356 9.80026 111.329 9.22402 110.862L8.62034 110.369L11.1448 74.8335C13.0382 48.0245 13.7516 39.1614 14.0535 38.6949C14.4376 38.1186 14.5748 38.0912 18.8555 38.0912H23.2734L23.0813 49.6709Z" fill="#373737"/>
<circle cx="111.212" cy="18.7189" r="18.7189" fill="#373737"/>
</svg>
