<svg width="24" height="28" viewBox="0 0 24 28" fill="none" xmlns="http://www.w3.org/2000/svg">
<path d="M11.5584 0.799217C8.43086 1.19171 6.04474 3.75851 6.04474 6.74272V7.38442L4.87971 7.40934C3.76453 7.42803 3.68977 7.43426 3.35334 7.59624C2.63065 7.93266 2.12602 8.58059 1.99518 9.3282C1.88927 9.96367 0.799008 25.5825 0.836388 25.9563C0.911149 26.7164 1.54662 27.545 2.29423 27.844L2.64934 27.9873H12.3371H22.0249L22.38 27.844C23.1276 27.545 23.7631 26.7164 23.8379 25.9563C23.8752 25.5825 22.785 9.9699 22.6791 9.33443C22.6417 9.11638 22.5545 8.82357 22.4797 8.6865C22.2741 8.26909 21.7819 7.80806 21.3521 7.6087C20.9783 7.43426 20.9284 7.42803 19.8008 7.40934L18.6295 7.38442V6.87978C18.6233 5.3721 17.9442 3.78343 16.8228 2.65578C15.7512 1.57798 14.5301 0.979889 13.0224 0.792988C12.4243 0.724457 12.1814 0.724457 11.5584 0.799217ZM13.4274 2.8863C15.2403 3.34732 16.6359 5.11044 16.6359 6.94208V7.39688H12.3371H8.03837V6.94208C8.03837 6.68665 8.09444 6.26923 8.15674 6.0138C8.75483 3.68375 11.0973 2.29444 13.4274 2.8863ZM6.07589 12.0196L6.03228 14.6549L6.17557 14.8667C6.38739 15.172 6.61168 15.3153 6.92941 15.3527C7.29076 15.3963 7.66456 15.2094 7.85769 14.8917L8.00722 14.6549L8.02591 12.0196L8.0446 9.3905H12.3371H16.6297L16.6483 12.0196L16.667 14.6549L16.8166 14.8917C17.0097 15.2094 17.3835 15.3963 17.7448 15.3527C18.0563 15.3215 18.2869 15.172 18.4924 14.873C18.6295 14.6674 18.6295 14.6612 18.6295 12.0321V9.3905H19.5952C20.5235 9.3905 20.5608 9.39673 20.6481 9.52757C20.7166 9.63348 20.8786 11.6458 21.3084 17.7326L21.8816 25.8005L21.7446 25.9127C21.6137 26.0186 21.1838 26.0248 12.3371 26.0248C3.4904 26.0248 3.06053 26.0186 2.9297 25.9127L2.79263 25.8005L3.3658 17.7326C3.79568 11.6458 3.95766 9.63348 4.02619 9.52757C4.11341 9.39673 4.14456 9.3905 5.11646 9.3905H6.1195L6.07589 12.0196Z" fill="#373737"/>
</svg>
