<svg width="16" height="16" viewBox="0 0 16 16" fill="none" xmlns="http://www.w3.org/2000/svg">
<rect width="16" height="16" fill="#575353"/>
<path d="M3.611 13V12.675L4.716 12.428V3.6595L3.611 3.4125V3.1005H6.8545C7.54783 3.1005 8.14367 3.13083 8.642 3.1915C9.14467 3.25217 9.58233 3.35183 9.955 3.4905C10.332 3.62483 10.6722 3.80683 10.9755 4.0365C11.5648 4.47417 12.0198 5.044 12.3405 5.746C12.6612 6.44367 12.8215 7.21717 12.8215 8.0665C12.8215 8.94183 12.6503 9.74783 12.308 10.4845C11.9657 11.2168 11.4933 11.8018 10.891 12.2395C10.5097 12.5125 10.0937 12.7075 9.643 12.8245C9.19233 12.9415 8.642 13 7.992 13H3.611ZM7.511 12.4865C8.12633 12.4865 8.63117 12.4085 9.0255 12.2525C9.41983 12.0922 9.76867 11.83 10.072 11.466C10.4057 11.05 10.6592 10.5408 10.8325 9.9385C11.0102 9.33183 11.099 8.66233 11.099 7.93C11.099 7.19767 11.0102 6.54983 10.8325 5.9865C10.6548 5.42317 10.3927 4.95083 10.046 4.5695C9.72967 4.23583 9.35267 3.9975 8.915 3.8545C8.47733 3.70717 7.90967 3.6335 7.212 3.6335H6.1785V11.713C6.1785 12.0033 6.276 12.2048 6.471 12.3175C6.666 12.4302 7.01267 12.4865 7.511 12.4865Z" fill="white"/>
</svg>
