<svg width="142" height="30" viewBox="0 0 142 30" fill="none" xmlns="http://www.w3.org/2000/svg">
<path d="M14.57 2.89C15.79 3.75 16.74 4.93 17.42 6.43C18.1 7.93 18.44 9.63 18.44 11.53C18.44 13.43 18.1 15.16 17.42 16.72C16.74 18.28 15.79 19.5 14.57 20.38C13.79 20.94 12.89 21.35 11.87 21.61C10.87 21.87 9.64 22 8.18 22H0.2V21.76L2.66 21.52V1.78L0.2 1.54V1.3H8.18C10.9 1.3 13.03 1.83 14.57 2.89ZM13.49 19.87C14.13 19.05 14.63 17.89 14.99 16.39C15.37 14.87 15.56 13.2 15.56 11.38C15.56 9.6 15.38 8.03 15.02 6.67C14.68 5.31 14.17 4.23 13.49 3.43C12.93 2.77 12.24 2.31 11.42 2.05C10.6 1.79 9.43 1.66 7.91 1.66H4.97V21.64H7.91C9.51 21.64 10.71 21.51 11.51 21.25C12.31 20.99 12.97 20.53 13.49 19.87ZM23.6715 22.21C22.9115 22.21 22.2815 21.95 21.7815 21.43C21.3015 20.89 21.0615 20.2 21.0615 19.36C21.0615 18.36 21.5115 17.56 22.4115 16.96C23.3315 16.36 24.8815 15.84 27.0615 15.4V12.67C27.0615 11.51 26.9315 10.71 26.6715 10.27C26.4115 9.81 25.9615 9.58 25.3215 9.58C24.7015 9.58 24.2015 9.75 23.8215 10.09C23.4415 10.41 23.2515 10.85 23.2515 11.41L23.2815 12.22C23.2815 12.72 23.1815 13.12 22.9815 13.42C22.8015 13.7 22.5415 13.84 22.2015 13.84C21.9015 13.84 21.6515 13.74 21.4515 13.54C21.2715 13.34 21.1815 13.08 21.1815 12.76C21.1815 12.28 21.4115 11.76 21.8715 11.2C22.3515 10.62 22.9615 10.14 23.7015 9.76C24.6015 9.26 25.5315 9.01 26.4915 9.01C27.0515 9.01 27.5215 9.12 27.9015 9.34C28.3015 9.56 28.5915 9.87 28.7715 10.27C28.8715 10.53 28.9315 10.85 28.9515 11.23C28.9915 11.61 29.0115 12.34 29.0115 13.42V19.15C29.0115 19.87 29.0815 20.37 29.2215 20.65C29.3615 20.91 29.6115 21.04 29.9715 21.04C30.5115 21.04 30.9115 20.85 31.1715 20.47L31.2915 20.53C31.0515 21.03 30.7315 21.42 30.3315 21.7C29.9315 21.96 29.5015 22.09 29.0415 22.09C28.5215 22.09 28.0915 21.94 27.7515 21.64C27.4115 21.32 27.2215 20.9 27.1815 20.38L27.0915 20.35C26.6315 20.93 26.1015 21.39 25.5015 21.73C24.9015 22.05 24.2915 22.21 23.6715 22.21ZM24.9615 21.07C25.3815 21.07 25.7715 20.98 26.1315 20.8C26.5115 20.6 26.8215 20.32 27.0615 19.96V15.73C26.0215 15.99 25.2115 16.25 24.6315 16.51C24.0715 16.77 23.6715 17.08 23.4315 17.44C23.1915 17.8 23.0715 18.25 23.0715 18.79C23.0715 19.49 23.2415 20.05 23.5815 20.47C23.9215 20.87 24.3815 21.07 24.9615 21.07ZM33.8302 3.64C33.5702 3.9 33.4402 4.24 33.4402 4.66C33.4402 5.08 33.5702 5.43 33.8302 5.71C34.1102 5.97 34.4602 6.1 34.8802 6.1C35.3002 6.1 35.6402 5.97 35.9002 5.71C36.1802 5.43 36.3202 5.08 36.3202 4.66C36.3202 4.24 36.1802 3.9 35.9002 3.64C35.6402 3.36 35.3002 3.22 34.8802 3.22C34.4602 3.22 34.1102 3.36 33.8302 3.64ZM36.0202 8.98V21.52L37.8502 21.76V22H32.2402V21.76L34.0702 21.52V11.02L32.3002 10.36V10.15L35.7802 8.98H36.0202ZM40.9257 9.91C41.7057 9.29 42.7957 8.98 44.1957 8.98C44.6757 8.98 45.1657 9.02 45.6657 9.1C46.1657 9.18 46.5757 9.28 46.8957 9.4V12.73H46.5657C46.2857 11.53 45.9257 10.66 45.4857 10.12C45.0657 9.58 44.4957 9.31 43.7757 9.31C43.1157 9.31 42.5857 9.52 42.1857 9.94C41.7857 10.34 41.5857 10.88 41.5857 11.56C41.5857 12.32 41.8057 12.9 42.2457 13.3C42.6857 13.68 43.3557 14.08 44.2557 14.5C44.9557 14.82 45.5057 15.12 45.9057 15.4C46.3257 15.66 46.6757 16.03 46.9557 16.51C47.2557 16.99 47.4057 17.6 47.4057 18.34C47.4057 19.56 47.0157 20.53 46.2357 21.25C45.4557 21.95 44.4057 22.3 43.0857 22.3C42.6057 22.3 42.0657 22.25 41.4657 22.15C40.8657 22.05 40.3557 21.92 39.9357 21.76L39.7857 17.86H40.1457C40.3457 19.26 40.6957 20.3 41.1957 20.98C41.7157 21.64 42.3857 21.97 43.2057 21.97C43.9457 21.97 44.5357 21.74 44.9757 21.28C45.4157 20.8 45.6357 20.18 45.6357 19.42C45.6357 18.6 45.4057 17.98 44.9457 17.56C44.4857 17.14 43.7957 16.71 42.8757 16.27C42.1957 15.93 41.6457 15.63 41.2257 15.37C40.8257 15.09 40.4857 14.72 40.2057 14.26C39.9257 13.8 39.7857 13.22 39.7857 12.52C39.7857 11.4 40.1657 10.53 40.9257 9.91ZM52.7124 10.81L55.8924 19.81H56.0124L58.7424 11.56C58.8624 11.16 58.9224 10.85 58.9224 10.63C58.9224 10.31 58.7724 10.08 58.4724 9.94C58.1724 9.78 57.6224 9.64 56.8224 9.52V9.28H62.1924V9.52C61.2324 9.66 60.5524 9.87 60.1524 10.15C59.7524 10.43 59.4424 10.91 59.2224 11.59L54.2124 26.32C53.8724 27.38 53.4924 28.11 53.0724 28.51C52.5524 29.09 51.9524 29.38 51.2724 29.38C50.7124 29.38 50.2424 29.21 49.8624 28.87C49.4824 28.55 49.2924 28.14 49.2924 27.64C49.2924 27.24 49.4024 26.92 49.6224 26.68C49.8624 26.44 50.1824 26.32 50.5824 26.32C50.9624 26.32 51.2324 26.42 51.3924 26.62C51.5524 26.82 51.6824 27.1 51.7824 27.46C51.8624 27.74 51.9424 27.94 52.0224 28.06C52.1224 28.2 52.2624 28.27 52.4424 28.27C52.7024 28.27 52.9424 28.1 53.1624 27.76C53.3824 27.44 53.6224 26.89 53.8824 26.11L55.0524 22.54L50.4324 10.54C50.2724 10.16 50.0624 9.91 49.8024 9.79C49.5624 9.65 49.1024 9.56 48.4224 9.52V9.28H54.2124V9.52C53.4924 9.56 53.0224 9.62 52.8024 9.7C52.6024 9.76 52.5024 9.87 52.5024 10.03C52.5024 10.15 52.5724 10.41 52.7124 10.81ZM76.5915 2.89C77.8115 3.75 78.7615 4.93 79.4415 6.43C80.1215 7.93 80.4615 9.63 80.4615 11.53C80.4615 13.43 80.1215 15.16 79.4415 16.72C78.7615 18.28 77.8115 19.5 76.5915 20.38C75.8115 20.94 74.9115 21.35 73.8915 21.61C72.8915 21.87 71.6615 22 70.2015 22H62.2215V21.76L64.6815 21.52V1.78L62.2215 1.54V1.3H70.2015C72.9215 1.3 75.0515 1.83 76.5915 2.89ZM75.5115 19.87C76.1515 19.05 76.6515 17.89 77.0115 16.39C77.3915 14.87 77.5815 13.2 77.5815 11.38C77.5815 9.6 77.4015 8.03 77.0415 6.67C76.7015 5.31 76.1915 4.23 75.5115 3.43C74.9515 2.77 74.2615 2.31 73.4415 2.05C72.6215 1.79 71.4515 1.66 69.9315 1.66H66.9915V21.64H69.9315C71.5315 21.64 72.7315 21.51 73.5315 21.25C74.3315 20.99 74.9915 20.53 75.5115 19.87ZM93.1923 18.58L93.3123 18.64L93.1923 18.97C92.7923 20.03 92.1923 20.85 91.3923 21.43C90.6123 22.01 89.6723 22.3 88.5723 22.3C87.4923 22.3 86.5323 22.02 85.6923 21.46C84.8523 20.9 84.1923 20.12 83.7123 19.12C83.2523 18.12 83.0223 16.97 83.0223 15.67C83.0223 14.37 83.2723 13.21 83.7723 12.19C84.2723 11.17 84.9823 10.38 85.9023 9.82C86.8223 9.26 87.8723 8.98 89.0523 8.98C90.4523 8.98 91.5223 9.4 92.2623 10.24C93.0223 11.06 93.4123 12.26 93.4323 13.84L93.2523 13.99H85.1523C85.1123 14.51 85.0923 14.92 85.0923 15.22C85.0923 17.04 85.4623 18.43 86.2023 19.39C86.9423 20.33 87.9723 20.8 89.2923 20.8C89.9723 20.8 90.6223 20.65 91.2423 20.35C91.8823 20.03 92.4423 19.56 92.9223 18.94L93.1923 18.58ZM88.7223 9.31C87.7823 9.31 87.0023 9.7 86.3823 10.48C85.7623 11.26 85.3623 12.32 85.1823 13.66L91.0023 13.45C91.0623 13.21 91.0923 12.81 91.0923 12.25C91.0923 11.17 90.8823 10.41 90.4623 9.97C90.0623 9.53 89.4823 9.31 88.7223 9.31ZM98.8278 0.37V21.52L100.658 21.76V22H95.0478V21.76L96.8778 21.52V2.41L95.1078 1.75V1.54L98.5878 0.37H98.8278ZM103.528 3.64C103.268 3.9 103.138 4.24 103.138 4.66C103.138 5.08 103.268 5.43 103.528 5.71C103.808 5.97 104.158 6.1 104.578 6.1C104.998 6.1 105.338 5.97 105.597 5.71C105.878 5.43 106.018 5.08 106.018 4.66C106.018 4.24 105.878 3.9 105.597 3.64C105.338 3.36 104.998 3.22 104.578 3.22C104.158 3.22 103.808 3.36 103.528 3.64ZM105.718 8.98V21.52L107.548 21.76V22H101.938V21.76L103.768 21.52V11.02L101.998 10.36V10.15L105.478 8.98H105.718ZM118.183 8.77C117.783 8.77 117.493 9.18 117.313 10C117.833 10.4 118.233 10.89 118.513 11.47C118.793 12.03 118.933 12.66 118.933 13.36C118.933 14.44 118.603 15.37 117.943 16.15C117.303 16.91 116.443 17.4 115.363 17.62C115.123 17.68 114.883 17.71 114.643 17.71C113.603 17.89 112.793 18.14 112.213 18.46C111.653 18.78 111.373 19.14 111.373 19.54C111.373 19.82 111.463 20.06 111.643 20.26C111.823 20.44 112.163 20.62 112.663 20.8C113.163 20.96 113.913 21.13 114.913 21.31C116.613 21.63 117.823 22.08 118.543 22.66C119.263 23.24 119.623 24.06 119.623 25.12C119.623 25.92 119.363 26.64 118.843 27.28C118.323 27.94 117.603 28.45 116.683 28.81C115.763 29.19 114.733 29.38 113.593 29.38C111.933 29.38 110.643 29.08 109.723 28.48C108.823 27.9 108.373 27.08 108.373 26.02C108.373 25.28 108.663 24.59 109.243 23.95C109.843 23.33 110.643 22.86 111.643 22.54C110.943 22.26 110.433 21.95 110.113 21.61C109.813 21.25 109.663 20.83 109.663 20.35C109.663 19.79 109.993 19.28 110.653 18.82C111.333 18.36 112.303 17.99 113.563 17.71C112.323 17.59 111.313 17.13 110.533 16.33C109.773 15.53 109.393 14.53 109.393 13.33C109.393 12.05 109.833 11.01 110.713 10.21C111.613 9.39 112.763 8.98 114.163 8.98C115.283 8.98 116.253 9.25 117.073 9.79C117.573 8.07 118.343 7.21 119.383 7.21C119.763 7.21 120.063 7.32 120.283 7.54C120.503 7.74 120.613 8.01 120.613 8.35C120.613 8.63 120.513 8.87 120.313 9.07C120.113 9.27 119.873 9.37 119.593 9.37C119.353 9.37 119.103 9.26 118.843 9.04C118.803 9.02 118.713 8.97 118.573 8.89C118.453 8.81 118.323 8.77 118.183 8.77ZM114.163 17.44C114.923 17.44 115.533 17.06 115.993 16.3C116.473 15.54 116.713 14.56 116.713 13.36C116.713 12.16 116.473 11.18 115.993 10.42C115.533 9.66 114.923 9.28 114.163 9.28C113.403 9.28 112.783 9.66 112.303 10.42C111.843 11.18 111.613 12.16 111.613 13.36C111.613 14.56 111.843 15.54 112.303 16.3C112.783 17.06 113.403 17.44 114.163 17.44ZM117.883 26.02C117.883 25.26 117.613 24.67 117.073 24.25C116.533 23.85 115.513 23.5 114.013 23.2C113.173 23.06 112.483 22.88 111.943 22.66C110.523 23.16 109.813 24.19 109.813 25.75C109.813 26.81 110.153 27.63 110.833 28.21C111.533 28.79 112.513 29.08 113.773 29.08C115.033 29.08 116.033 28.8 116.773 28.24C117.513 27.7 117.883 26.96 117.883 26.02ZM133.283 21.76V22H127.673V21.76L129.503 21.52V13.87C129.503 13.05 129.483 12.46 129.443 12.1C129.403 11.72 129.323 11.41 129.203 11.17C129.043 10.83 128.783 10.57 128.423 10.39C128.063 10.19 127.643 10.09 127.163 10.09C126.123 10.09 125.223 10.52 124.463 11.38V21.52L126.293 21.76V22H120.683V21.76L122.513 21.52V2.41L120.743 1.75V1.54L124.223 0.37H124.463V10.93C125.083 10.29 125.723 9.81 126.383 9.49C127.063 9.15 127.733 8.98 128.393 8.98C128.993 8.98 129.533 9.11 130.013 9.37C130.513 9.63 130.883 9.99 131.123 10.45C131.263 10.71 131.353 11.07 131.393 11.53C131.433 11.97 131.453 12.75 131.453 13.87V21.52L133.283 21.76ZM134.456 9.58L137.756 6.4L137.876 6.43V9.28H141.296L141.116 9.76H137.876V18.94C137.876 19.64 137.986 20.16 138.206 20.5C138.446 20.98 138.896 21.22 139.556 21.22C139.876 21.22 140.186 21.14 140.486 20.98C140.786 20.82 141.116 20.56 141.476 20.2L141.596 20.29C141.296 20.91 140.866 21.4 140.306 21.76C139.766 22.12 139.186 22.3 138.566 22.3C137.926 22.3 137.356 22.12 136.856 21.76C136.516 21.52 136.276 21.21 136.136 20.83C135.996 20.45 135.926 19.95 135.926 19.33V9.73H134.516L134.456 9.58Z" fill="black"/>
</svg>
