<?xml version="1.0" encoding="UTF-8"?><svg id="Capa_2" xmlns="http://www.w3.org/2000/svg" viewBox="0 0 229.29 326.02"><defs><style>.cls-1{stroke-width:7px;}.cls-1,.cls-2{fill:none;stroke:#373737;stroke-linecap:round;stroke-linejoin:round;}.cls-2{stroke-width:7.25px;}</style></defs><g id="Capa_1-2"><g><polyline class="cls-2" points="57.04 181.92 101.25 264.45 101.25 322.4 136.75 322.4 136.75 267.83 177.75 182.83"/><rect class="cls-1" x="102.75" y="267.83" width="35" height="17"/><g><path class="cls-1" d="M152.75,118.83c9.15-5.34,11.52-17.26,6-25-4.94-6.93-15.21-9.12-23.26-4.22,.31-10.43-8.52-18.52-17.74-17.78-8.33,.67-15.36,8.42-15,17.78-8.22-5.29-18.59-3.87-24,2.22-6.55,7.38-5.2,20.95,4.9,27.77-8.77,5.08-11.58,16.24-6.9,24.23,5,8.53,17.25,11.26,26,4.82-.61,10.1,7.54,18.72,17.5,18.72s18.11-8.62,17.5-18.72c8.62,4.36,19.15,.6,23-7.82,3.66-8.01,.21-17.91-8-22Zm-34,16c-8.84,0-16-7.16-16-16s7.16-16,16-16,16,7.16,16,16-7.16,16-16,16Z"/><circle class="cls-1" cx="118.75" cy="118.83" r="16"/></g><path class="cls-1" d="M103.36,154.37c-.5-1.82-.73-3.74-.61-5.72-6.8,5-15.7,4.45-21.68-.04-1.14,1.23-2.49,2.31-4.04,3.16-7.75,4.24-17.47,1.4-21.72-6.35s-1.4-17.47,6.35-21.72c5.4-2.96,11.75-2.47,16.55,.72,1.43-1.89,3.25-3.55,5.45-4.82-7.61-5.13-10.25-14.1-8.29-21.36-2.12,1.47-3.98,3.42-5.37,5.83-4.74-9.3-16.37-12.15-24.1-7.07-6.98,4.59-9.43,14.76-4.62,22.8-9.75-.69-18.17,5.53-19.98,13.48-2.2,9.62,5.5,20.87,17.64,22-5.26,8.67-2.36,19.81,5.59,24.57,8.48,5.08,20.54,1.58,25.12-8.26,4.31,9.16,15.6,12.8,24.34,8.01s11.75-16.26,6.36-24.82c1.04-.03,2.05-.18,3.03-.39Z"/><path class="cls-1" d="M186.03,94.77c-7.75,4.24-17.47,1.4-21.72-6.35s-1.4-17.47,6.35-21.72c7.75-4.24,17.47-1.4,21.72,6.35,4.24,7.75,1.4,17.47-6.35,21.72Zm-14.18,10.38c5.14-7.9,15.35-10.37,22.8-6.25,8.24,4.55,11.27,16.14,5.55,24.88,.94-.32,1.88-.7,2.78-1.19,8.74-4.78,11.75-16.26,6.36-24.82,9.65-.32,17.09-8.67,16.42-17.91-.64-8.78-8.42-15.81-17.58-15.45,5.46-9.08,1.81-20.67-6.75-24.81-7.66-3.71-17.72-.69-22.43,7.47-3.29-6.45-9.89-9.8-16.2-9.55"/><path class="cls-1" d="M37.1,69.69c4.43-7.64,14.23-10.24,21.87-5.81,7.64,4.43,10.24,14.23,5.81,21.87-4.43,7.64-14.23,10.24-21.87,5.81-7.64-4.43-10.24-14.23-5.81-21.87Zm30.46-34.79c-6.31-.4-12.99,2.78-16.43,9.15-4.5-8.28-14.49-11.54-22.24-8.02-8.66,3.93-12.59,15.42-7.36,24.63-9.16-.58-17.11,6.25-17.96,15.01-.9,9.21,6.33,17.75,15.97,18.31-5.6,8.43-2.87,19.98,5.74,24.97,.89,.52,5.46-.12,13.46-1.12"/><path class="cls-1" d="M87.78,86.77c4.8-1.01,10.24-.2,14.97,2.84-.36-9.36,6.67-17.11,15-17.78,9.22-.74,18.05,7.35,17.74,17.78,2.09-1.27,4.33-2.06,6.59-2.42,7.07-5.36,9.18-15.6,4.25-23.43,9.65-.32,17.09-8.67,16.42-17.91-.22-3.08-1.33-5.95-3.06-8.36-3.21-4.45-8.57-7.33-14.52-7.1,5.46-9.08,1.81-20.67-6.75-24.81-7.66-3.71-17.72-.69-22.43,7.47-4.74-9.3-16.37-12.15-24.1-7.07-6.98,4.59-9.43,14.76-4.62,22.8-9.75-.69-18.17,5.53-19.98,13.48-2.2,9.62,5.5,20.87,17.64,22-4.6,7.59-2.95,17.06,2.85,22.5Zm19.88-54.07c7.75-4.24,17.47-1.4,21.72,6.35,4.24,7.75,1.4,17.47-6.35,21.72-7.75,4.24-17.47,1.4-21.72-6.35s-1.4-17.47,6.35-21.72Z"/><path class="cls-1" d="M216.77,140.41c-.16-8.8-7.55-16.24-16.73-16.38,5.94-8.78,2.92-20.54-5.4-25.14-7.45-4.11-17.66-1.65-22.8,6.25-2.41-5.43-7.15-8.88-12.27-10.01,4.4,7.72,1.82,18.64-6.83,23.69,3.19,1.59,5.65,4.06,7.26,6.95,.76-.55,1.58-1.05,2.45-1.47,7.97-3.82,17.52-.46,21.35,7.51s.46,17.52-7.51,21.35c-7.49,3.59-16.38,.84-20.59-6.12-4.96,3.72-11.93,4.67-17.97,1.61,.12,2.01-.11,3.95-.63,5.79,.32,.06,.63,.12,.95,.17-5.71,8.37-3.42,19.65,4.26,24.83,8.2,5.53,20.43,2.69,25.53-6.9,3.81,9.38,14.89,13.62,23.87,9.31s12.61-15.6,7.68-24.45c9.66,.2,17.53-7.74,17.36-17Z"/></g></g></svg>