<?xml version="1.0" encoding="UTF-8"?><svg id="Capa_2" xmlns="http://www.w3.org/2000/svg" viewBox="0 0 202.87 257.74"><defs><style>.cls-1{stroke-width:7px;}.cls-1,.cls-2{fill:none;stroke:#373737;stroke-linecap:round;stroke-linejoin:round;}.cls-2{stroke-width:7.25px;}</style></defs><g id="Capa_1-2"><polyline class="cls-2" points="40.62 113.64 84.83 196.16 84.83 254.12 120.33 254.12 120.33 199.55 162.33 113.55"/><rect class="cls-1" x="85.33" y="199.55" width="35" height="17"/><path class="cls-1" d="M199.33,69.57c-.64-8.78-8.42-15.81-17.58-15.45,5.46-9.08,1.81-20.67-6.75-24.81-7.66-3.71-17.72-.69-22.43,7.47-2.15-4.22-5.73-7.1-9.72-8.53,3.37,7.59,.62,17.54-7.52,22.29,3.18,1.59,5.64,4.05,7.25,6.93,.53-.38,1.07-.74,1.66-1.06,7.75-4.24,17.47-1.4,21.72,6.35,4.24,7.75,1.4,17.47-6.35,21.72-7.53,4.12-16.91,1.54-21.33-5.71-4.96,3.71-11.92,4.65-17.95,1.6,.16,2.56-.26,5.02-1.11,7.27,.74,.15,1.51,.27,2.29,.34-5.26,8.67-2.36,19.81,5.59,24.57,8.48,5.08,20.54,1.58,25.12-8.26,4.31,9.16,15.6,12.8,24.34,8.01s11.75-16.26,6.36-24.82c9.65-.32,17.09-8.67,16.42-17.91Z"/><g><path class="cls-1" d="M135.33,50.55c9.15-5.34,11.52-17.26,6-25-4.94-6.93-15.21-9.12-23.26-4.22,.31-10.43-8.52-18.52-17.74-17.78-8.33,.67-15.36,8.42-15,17.78-8.22-5.29-18.59-3.87-24,2.22-6.55,7.38-5.2,20.95,4.9,27.77-8.77,5.08-11.58,16.24-6.9,24.23,5,8.53,17.25,11.26,26,4.82-.61,10.1,7.54,18.72,17.5,18.72s18.11-8.62,17.5-18.72c8.62,4.36,19.15,.6,23-7.82,3.66-8.01,.21-17.91-8-22Zm-34,16c-8.84,0-16-7.16-16-16s7.16-16,16-16,16,7.16,16,16-7.16,16-16,16Z"/><circle class="cls-1" cx="101.33" cy="50.55" r="16"/></g><path class="cls-1" d="M85.94,86.09c-.5-1.82-.73-3.74-.61-5.72-6.8,5-15.7,4.45-21.68-.04-1.14,1.23-2.49,2.31-4.04,3.16-7.75,4.24-17.47,1.4-21.72-6.35s-1.4-17.47,6.35-21.72c5.4-2.96,11.75-2.47,16.55,.72,1.43-1.89,3.25-3.55,5.45-4.82-7.61-5.13-10.25-14.1-8.29-21.36-2.12,1.47-3.98,3.42-5.37,5.83-4.74-9.3-16.37-12.15-24.1-7.07-6.98,4.59-9.43,14.76-4.62,22.8-9.75-.69-18.17,5.53-19.98,13.48-2.2,9.62,5.5,20.87,17.64,22-5.26,8.67-2.36,19.81,5.59,24.57,8.48,5.08,20.54,1.58,25.12-8.26,4.31,9.16,15.6,12.8,24.34,8.01s11.75-16.26,6.36-24.82c1.04-.03,2.05-.18,3.03-.39Z"/></g></svg>