<?xml version="1.0" encoding="UTF-8"?><svg id="Capa_2" xmlns="http://www.w3.org/2000/svg" viewBox="0 0 202.87 290.56"><defs><style>.cls-1{stroke-width:7px;}.cls-1,.cls-2{fill:none;stroke:#373737;stroke-linecap:round;stroke-linejoin:round;}.cls-2{stroke-width:7.25px;}</style></defs><g id="Capa_1-2"><g><polyline class="cls-2" points="40.62 146.46 84.83 228.98 84.83 286.94 120.33 286.94 120.33 232.37 162.33 146.37"/><rect class="cls-1" x="85.33" y="232.37" width="35" height="17"/><path class="cls-1" d="M199.33,102.39c-.64-8.78-8.42-15.81-17.58-15.45,5.46-9.08,1.81-20.67-6.75-24.81-7.66-3.71-17.72-.69-22.43,7.47-2.15-4.22-5.73-7.1-9.72-8.53,3.37,7.59,.62,17.54-7.52,22.29,3.18,1.59,5.64,4.05,7.25,6.93,.53-.38,1.07-.74,1.66-1.06,7.75-4.24,17.47-1.4,21.72,6.35,4.24,7.75,1.4,17.47-6.35,21.72-7.53,4.12-16.91,1.54-21.33-5.71-4.96,3.71-11.92,4.65-17.95,1.6,.16,2.56-.26,5.02-1.11,7.27,.74,.15,1.51,.27,2.29,.34-5.26,8.67-2.36,19.81,5.59,24.57,8.48,5.08,20.54,1.58,25.12-8.26,4.31,9.16,15.6,12.8,24.34,8.01,8.74-4.78,11.75-16.26,6.36-24.82,9.65-.32,17.09-8.67,16.42-17.91Z"/><g><path class="cls-1" d="M135.33,83.37c9.15-5.34,11.52-17.26,6-25-4.94-6.93-15.21-9.12-23.26-4.22,.31-10.43-8.52-18.52-17.74-17.78-8.33,.67-15.36,8.42-15,17.78-8.22-5.29-18.59-3.87-24,2.22-6.55,7.38-5.2,20.95,4.9,27.77-8.77,5.08-11.58,16.24-6.9,24.23,5,8.53,17.25,11.26,26,4.82-.61,10.1,7.54,18.72,17.5,18.72s18.11-8.62,17.5-18.72c8.62,4.36,19.15,.6,23-7.82,3.66-8.01,.21-17.91-8-22Zm-34,16c-8.84,0-16-7.16-16-16s7.16-16,16-16,16,7.16,16,16-7.16,16-16,16Z"/><circle class="cls-1" cx="101.33" cy="83.37" r="16"/></g><path class="cls-1" d="M85.94,118.91c-.5-1.82-.73-3.74-.61-5.72-6.8,5-15.7,4.45-21.68-.04-1.14,1.23-2.49,2.31-4.04,3.16-7.75,4.24-17.47,1.4-21.72-6.35-4.24-7.75-1.4-17.47,6.35-21.72,5.4-2.96,11.75-2.47,16.55,.72,1.43-1.89,3.25-3.55,5.45-4.82-7.61-5.13-10.25-14.1-8.29-21.36-2.12,1.47-3.98,3.42-5.37,5.83-4.74-9.3-16.37-12.15-24.1-7.07-6.98,4.59-9.43,14.76-4.62,22.8-9.75-.69-18.17,5.53-19.98,13.48-2.2,9.62,5.5,20.87,17.64,22-5.26,8.67-2.36,19.81,5.59,24.57,8.48,5.08,20.54,1.58,25.12-8.26,4.31,9.16,15.6,12.8,24.34,8.01s11.75-16.26,6.36-24.82c1.04-.03,2.05-.18,3.03-.39Z"/><g><path class="cls-1" d="M143.42,62.53s-.02-.06-.03-.09c0,.03,.02,.06,.03,.09Z"/><path class="cls-1" d="M86.24,43.27c-.41,1.77-.47,3.6-.24,5.41,1.91-6.75,7.71-11.77,14.34-12.31"/><path class="cls-1" d="M100.33,36.37c9.22-.74,18.05,7.35,17.74,17.78,.42-.26,.85-.48,1.29-.7-2.82-7.36,.14-15.85,7.24-19.74,7.75-4.24,17.47-1.4,21.72,6.35,4.05,7.39,1.63,16.57-5.33,21.08,3.93,1.44,7.45,4.3,9.58,8.47,4.56-7.91,14.13-10.96,21.69-7.78,4.84-3.29,7.87-8.93,7.44-14.96-.64-8.78-8.42-15.81-17.58-15.45,5.46-9.08,1.81-20.67-6.75-24.81-7.66-3.71-17.72-.69-22.43,7.47-4.74-9.3-16.37-12.15-24.1-7.07-6.98,4.59-9.95,17.8-5.14,25.84"/></g><path class="cls-1" d="M100.33,36.37c-5.01,.4-9.53,3.38-12.28,7.71-.29-1.72-.85-3.42-1.73-5.03-4.24-7.75-13.97-10.59-21.72-6.35-7.75,4.24-10.59,13.97-6.35,21.72,.62,1.13,1.37,2.15,2.2,3.07-2.05,2.81-6.5,8.71-7.89,11.12-4.19-8.23-13.78-11.4-21.28-8.5-5.63-4.39-8.51-11.47-7.05-17.83,1.82-7.94,10.24-14.17,19.98-13.48-4.81-8.04-2.36-18.21,4.62-22.8,7.73-5.08,19.36-2.23,24.1,7.07,4.71-8.17,14.77-11.18,22.43-7.47,4.81,2.33,9.66,6.97,9.03,12.29-.7,5.95,.3-.05-.7,5.95"/></g></g></svg>