<svg width="21" height="26" viewBox="0 0 21 26" fill="none" xmlns="http://www.w3.org/2000/svg">
<path d="M9.01255 0.550447C7.05235 0.900875 5.26188 2.06166 4.1887 3.68239C3.63021 4.52013 3.2086 5.57141 3.04981 6.53509C2.9403 7.19761 2.9403 8.2927 3.04981 8.95522C3.19765 9.82582 3.62473 10.9538 4.05729 11.6108L4.1668 11.7805L3.78352 12.0981C2.21755 13.3794 1.002 15.241 0.416132 17.245C0.0711805 18.4387 0.0492788 18.6741 0.0219017 21.8717L0 24.8011L0.125935 25.0475C0.197115 25.1844 0.334001 25.3486 0.438034 25.4143L0.624198 25.5403H10.2445H19.8648L20.0455 25.4143C20.1496 25.3486 20.281 25.2063 20.3412 25.1022C20.4507 24.9161 20.4562 24.8175 20.4726 22.474C20.4945 19.1176 20.4124 18.2689 19.9305 16.807C19.3337 14.9946 18.162 13.2863 16.6946 12.0872L16.3222 11.7805L16.4317 11.6108C16.8643 10.9538 17.2914 9.82582 17.4392 8.95522C17.5487 8.29817 17.5487 7.19214 17.4447 6.56246C17.045 4.23541 15.5885 2.26426 13.4805 1.2075C12.9439 0.933727 12.0788 0.65448 11.4546 0.550447C10.8194 0.440939 9.61485 0.440939 9.01255 0.550447ZM11.367 2.31901C13.5352 2.76799 15.2272 4.46538 15.6761 6.65007C15.7637 7.07168 15.7802 7.3126 15.7583 7.93679C15.7254 8.88404 15.6104 9.35493 15.2053 10.1817C14.4825 11.6437 13.2232 12.684 11.6298 13.122C11.2739 13.2206 11.0494 13.2425 10.2719 13.2425C9.47248 13.248 9.28084 13.2315 8.90304 13.1275C7.38635 12.7114 6.19271 11.8024 5.4371 10.4938C4.94431 9.6506 4.71434 8.76906 4.71434 7.74516C4.71434 5.85066 5.59588 4.21351 7.20566 3.10747C7.7094 2.76252 8.59642 2.40662 9.28632 2.28068C9.77363 2.1876 10.8304 2.2095 11.367 2.31901ZM5.68897 13.4232C7.53418 14.9289 10.0638 15.4217 12.3745 14.7208C13.2396 14.458 14.1813 13.9543 14.8274 13.4067C14.9808 13.2753 15.1395 13.1658 15.1779 13.1658C15.2107 13.1658 15.3586 13.2589 15.4955 13.3684C16.7767 14.4033 17.7568 15.805 18.266 17.3436C18.6602 18.5317 18.7314 19.2107 18.7314 21.8827V23.7881H10.2445H1.75761V21.8279C1.76309 20.7548 1.78499 19.6268 1.81237 19.3257C2.02043 16.9877 3.11552 14.9289 4.96073 13.3958C5.11405 13.2699 5.26736 13.1658 5.30569 13.1658C5.34401 13.1658 5.51375 13.2808 5.68897 13.4232Z" fill="#373737"/>
</svg>
