<svg width="32" height="26" viewBox="0 0 32 26" fill="none" xmlns="http://www.w3.org/2000/svg">
<path d="M28.6875 6.5C28.6875 6.8125 28.6875 7.0625 28.6875 7.375C28.6875 16.0625 22.125 26 10.0625 26C6.3125 26 2.875 24.9375 0 23.0625C0.5 23.125 1 23.1875 1.5625 23.1875C4.625 23.1875 7.4375 22.125 9.6875 20.375C6.8125 20.3125 4.375 18.4375 3.5625 15.8125C4 15.875 4.375 15.9375 4.8125 15.9375C5.375 15.9375 6 15.8125 6.5 15.6875C3.5 15.0625 1.25 12.4375 1.25 9.25V9.1875C2.125 9.6875 3.1875 9.9375 4.25 10C2.4375 8.8125 1.3125 6.8125 1.3125 4.5625C1.3125 3.3125 1.625 2.1875 2.1875 1.25C5.4375 5.1875 10.3125 7.8125 15.75 8.125C15.625 7.625 15.5625 7.125 15.5625 6.625C15.5625 3 18.5 0.0625 22.125 0.0625C24 0.0625 25.6875 0.8125 26.9375 2.125C28.375 1.8125 29.8125 1.25 31.0625 0.5C30.5625 2.0625 29.5625 3.3125 28.1875 4.125C29.5 4 30.8125 3.625 31.9375 3.125C31.0625 4.4375 29.9375 5.5625 28.6875 6.5Z" fill="#373737"/>
</svg>
